<?xml version="1.0" encoding="utf-8"?>
<!-- Generator: Adobe Illustrator 26.0.3, SVG Export Plug-In . SVG Version: 6.00 Build 0)  -->
<svg version="1.1" id="Calque_1" xmlns="http://www.w3.org/2000/svg" xmlns:xlink="http://www.w3.org/1999/xlink" x="0px" y="0px"
	 viewBox="0 0 700 700" style="enable-background:new 0 0 700 700;" xml:space="preserve">
<style type="text/css">
	.st0{fill:#333333;}
	.st1{fill:#F15A24;}
</style>
<g>
	<path class="st0" d="M2.7-0.4c0,0,235.1,292.1,463.6,382.5c0,0-165.9,303.1-190,281.7c0,0-57.9-29.5-74.6-95
		c168.1,15.3-78.8,18.3-65.5-108.5c0,0,68,42.9,91.5,20.9c0,0-159.2-43.7-150.4-130.5c0,0,91.2,54.1,111,50.8
		c11.4-45.2-154.9-76.2-136.6-189.1c0,0,43.2,71.1,142.5,84.7C194.3,297-30.3,101.5,2.7-0.4z"/>
	<path class="st1" d="M696.4,2.6c-26.5,40.5-59.8,85-101.5,130.2C517.4,217,437.4,274.6,373,313.3c-5.4,3.7-13,9.1-22,15.7
		c-5.1,3.8-15.3,11.3-22.8,17.3c-9.3,7.4-25,20-39.4,38.8c-7.6,9.9-17.5,24.8-25.5,45.3c-4.2,7.5-10.2,18.9-16.9,33.5
		c-8.8,19.2-16.5,42.9-26,71.9c-0.7,2.3-9.4,26.3-7.3,43.5c6,49.5,61.6,101.3,139.6,121.2c0,0-22.4-22.6-25.6-39.4
		c-3.2-16.9,9.1,23.9,43.2,12.8c0,0-23.5-28.2-26.1-42.2c0,0,52.5,45.6,73.1,26.9L385.4,618c0,0,36.8,50.7,80.4,9.6
		c0,0-35.8-21.2-38.4-35.2c-2.7-14.1,48.7,49.8,88.9-17.1L456.5,547c0,0,100.9,5.9,111.2-51.3c-120.6,1.8,57.2,22.4,44.5-92.2
		c0,0-48,33.6-65.6,12.5c0,0,114-28.3,105.3-106.1c0,0-64.6,42-79,37.8c-9.3-41.1,110.1-57.6,93.8-159.1c0,0-29.4,60.4-100.9,65.8
		C565.8,254.4,723.1,95.5,696.4,2.6z"/>
</g>
</svg>
