<?xml version="1.0" encoding="utf-8"?>
<!-- Generator: Adobe Illustrator 26.0.3, SVG Export Plug-In . SVG Version: 6.00 Build 0)  -->
<svg version="1.1" id="Calque_1" xmlns="http://www.w3.org/2000/svg" xmlns:xlink="http://www.w3.org/1999/xlink" x="0px" y="0px"
	 viewBox="0 0 63.1 63.1" style="enable-background:new 0 0 63.1 63.1;" xml:space="preserve">
<style type="text/css">
	.st0{fill:#333333;}
</style>
<g>
	<path class="st0" d="M72.9,77.3c-6-1.7-1.2-7.2-3.6-9.3c-14.8,0-29.4,0-44.6,0c0,3.2,0.2,5.5-0.1,7.8c-0.1,1-1.1,2-1.8,3
		c-0.6-0.9-1.8-1.8-1.9-2.7c-0.3-10.3,1.1-20,10.8-25.8c9.5-5.6,25.1-4.9,32.5,2.1C71.1,58.6,75.3,66.5,72.9,77.3z"/>
	<path class="st0" d="M35.4,44.9c-2.6,0.2-5.4,0.7-8.2,0.7c-9.7-0.1-19.4,0.6-28.3,4.7c-2.7,1.2-4.6,4.2-6.9,6.4
		c2.3,2.2,4.3,5.2,7.1,6.3c4.8,2,10.1,2.7,15.1,4.1c1.2,0.4,2.2,1.6,2.8,3.1c-9.6,0.4-18.5-1.3-26-7.4c-4.5-3.6-4.5-9.2,0.3-12.8
		c3.2-2.4,4.3-5,4.4-8.7c0.2-4.7,3-8,6.9-10.3c7.6-4.3,15.6-4.5,23.8-1.8c1.3,0.4,2.7,1.9,3.4,3.2C31.6,36.1,33.2,40,35.4,44.9z"/>
	<path class="st0" d="M46.4,43.3c-7.6-0.1-13.5-6.5-13.2-14.3c0.2-7.4,6.5-13.4,13.8-13.3c7.6,0.1,13.8,6.5,13.6,14.1
		C60.3,37.4,54.1,43.4,46.4,43.3z"/>
	<path class="st0" d="M16.3,24.5C9.5,24.4,4.3,18.9,4.4,12S9.8-0.1,16.7,0c6.8,0.1,12.1,5.5,12,12.4C28.6,19.2,23.1,24.6,16.3,24.5z
		"/>
</g>
</svg>
