<?xml version="1.0" encoding="utf-8"?>
<!-- Generator: Adobe Illustrator 26.0.3, SVG Export Plug-In . SVG Version: 6.00 Build 0)  -->
<svg version="1.1" id="Calque_1" xmlns="http://www.w3.org/2000/svg" xmlns:xlink="http://www.w3.org/1999/xlink" x="0px" y="0px"
	 viewBox="0 0 73.3 70.6" style="enable-background:new 0 0 73.3 70.6;" xml:space="preserve">
<style type="text/css">
	.st0{fill:#333333;}
</style>
<g>
	<path class="st0" d="M19.5,7.3C20.1,4,20.1,4,23.5,4C32.7,4,41.8,4,51,4c2.5,0,2.5,0,2.6,2.6c0,0.2,0.1,0.4,0.1,0.7
		c2.2,0,4.4,0,6.6,0c1.5,0,2.2,0.6,2.2,2c-0.2,7.1-2.1,13.5-7.3,18.6c-1.8,1.7-3.9,2.9-6.3,3.5c-0.5,0.1-1.1,0.6-1.4,1.1
		c-1.7,2.6-3.5,4.9-6.2,6.6c-0.7,0.4-1.4,1.6-1.3,2.4c0.2,2.4,0.7,4.8,1.1,7.1c0.1,0.3,0.8,0.6,1.2,0.6c1.6,0.1,3.2,0,4.8,0
		c2.2,0,2.3,0.1,2.3,2.2c0,2.5,0,5.1,0,7.8c1,0,1.8,0,2.7,0c1,0,1.4,0.4,1.4,1.4c0,1.4,0,2.8,0,4.2c0,1.2-0.5,1.6-1.7,1.6
		c-3.9,0-7.8,0-11.7,0c-6.2,0-12.4,0-18.6,0c-1.7,0-2-0.2-2-1.9c0-1.2,0-2.4,0-3.7c-0.1-1.3,0.5-1.8,1.8-1.7c0.8,0,1.6,0,2.6,0
		c0-2.4,0-4.7,0-7.1c0-3,0-3,3-2.9c1.4,0,2.8,0,4.2,0c0.4,0,1-0.3,1.1-0.6c0.9-2.4,1.6-4.8,1.1-7.4c-0.2-0.8-0.6-1.8-1.3-2.2
		c-2.7-1.7-4.6-4-6.2-6.7c-0.2-0.4-0.6-0.9-1-0.9c-5.1-1.1-8.3-4.5-10.7-8.8c-2.2-4-3.2-8.3-3.3-12.8c0-1.8,0.6-2.4,2.4-2.4
		C15.4,7.3,17.4,7.3,19.5,7.3z M53.6,11c-0.5,2.8-0.8,5.5-1.4,8.2c-0.6,2.6-1.3,5.2-2,7.9c4.5-1.8,8.7-9.9,8.5-16.1
		C57,11,55.3,11,53.6,11z M14.6,10.9c-0.3,6.1,4.2,14.5,8.3,15.9c-1.1-5.2-2.2-10.5-3.4-15.9C18.1,10.9,16.4,10.9,14.6,10.9z"/>
</g>
</svg>
