<?xml version="1.0" encoding="utf-8"?>
<!-- Generator: Adobe Illustrator 26.0.3, SVG Export Plug-In . SVG Version: 6.00 Build 0)  -->
<svg version="1.1" id="Calque_1" xmlns="http://www.w3.org/2000/svg" xmlns:xlink="http://www.w3.org/1999/xlink" x="0px" y="0px"
	 viewBox="0 0 134 130.3" style="enable-background:new 0 0 134 130.3;" xml:space="preserve">
<g>
	<path d="M87.1,120c-12.6,0-25.2,0-38,0c0-6.5,0-12.7,0-19.5c3.9-0.2,7.7-0.5,11.5-0.7c5.5-0.3,11.1-0.5,16.6-0.8
		c4.7-0.3,8.4-2.4,10.1-6.9c1.7-4.4,1.3-8.5-1.7-12.6c-1.3-1.8-2.1-4.5-2.1-6.9c-0.1-11,0-11.1-10.9-11.1c-5.3,0-10.6,0-15.9,0
		c-1.9,0-3.4,0.3-3.4,2.6c0,4.9,0,9.8,0,15.5c3.7,0,7.1,0,10.5,0c4.3,0.1,8.7,0.2,13,0.4c4.3,0.2,6.6,2.7,6.7,6.9
		c0,4.2-2.2,6.7-6.6,6.9c-10.3,0.6-20.7,1.1-31,1.4c-7.6,0.2-10.5-2.9-9.4-10.3c1.2-7.8,2.9-15.6,5-23.2c0.8-2.9,2.9-6,5.3-7.9
		c4.5-3.7,9.6-5.9,15.4-0.7c5,4.4,5.6,4.4,10.3,0.3c4-3.5,7.9-4.2,12.8-2.3c5,2,8.9,4.9,10.3,10.2c0.9,3.2,1.4,6.6,1.4,9.9
		c0.2,11.7,0.2,23.3,0.2,35c0,5.7-2,8-7.2,9.8c-1.2,0.4-2.1,1.9-3.1,2.9C86.9,119.4,87,119.7,87.1,120z"/>
	<path d="M26.1,59.3c5-2,7.3-8.9,14.4-6.5c-5.6,8.5-7,18.1-8.5,27.7c-2.2,13-0.7,15.6,11.3,20.6c0,6.2,0,12.4,0,18.9
		c-11.4,0-22.7,0-34.4,0c0-2.2,0-4.3,0-6.6c-1.5-0.5-2.7-0.8-3.9-1.3c-3-1.3-4.9-3.4-4.9-6.9c0-12.1-0.1-24.3,0.1-36.4
		c0.2-9,5-14.6,13.6-16c1.9-0.3,4.2,0.4,5.9,1.4C22.2,55.6,24.1,57.6,26.1,59.3z"/>
	<path d="M125.3,113.2c0,2.2,0,4.4,0,6.8c-10.3,0-20.3,0-31.4,0c8.3-4.4,8.2-11.5,8.1-18.7c-0.1-10-0.1-20-0.2-29.9
		c-0.1-6.7-1.3-13.1-6.3-19.1c6.1,0,8.1,5.2,12.4,7c1.3-1,2.8-2.2,4.3-3.4c5-4.2,9.4-4.3,14.9-0.4c4.4,3.1,6.4,7.6,6.5,12.7
		c0.3,12.3,0.2,24.5,0.2,36.8C133.8,110.3,130,112.1,125.3,113.2z"/>
	<path d="M67.4,10.3c10.2,0,18.1,7.8,18.1,18c0,10-8,18.1-18.1,18.1c-10.1,0-18.1-8-18.1-18.1C49.3,18.3,57.3,10.3,67.4,10.3z"/>
	<path d="M26.5,48.7c-8.6,0-16-7.3-16-15.7c0-8.7,7.1-15.6,16-15.6c8.8,0,15.6,6.7,15.6,15.4C42.2,41.6,35.2,48.7,26.5,48.7z"/>
	<path d="M107.9,17.4c8.6,0.1,15.7,7,15.7,15.5c0,8.6-7.3,15.8-15.9,15.8c-8.8,0-15.7-7-15.7-15.8C92,24,98.9,17.3,107.9,17.4z"/>
</g>
</svg>
