<?xml version="1.0" encoding="utf-8"?>
<!-- Generator: Adobe Illustrator 26.0.3, SVG Export Plug-In . SVG Version: 6.00 Build 0)  -->
<svg version="1.1" id="Calque_1" xmlns="http://www.w3.org/2000/svg" xmlns:xlink="http://www.w3.org/1999/xlink" x="0px" y="0px"
	 viewBox="0 0 1366 243.1" style="enable-background:new 0 0 1366 243.1;" xml:space="preserve">
<style type="text/css">
	.st0{fill:#333333;}
	.st1{fill:#F15A24;stroke:#333333;stroke-width:2;stroke-miterlimit:10;}
</style>
<path class="st0" d="M0.2,13.4c0,0,151.8,70.4,279.3,74.8c0,0,62.7-5.5,107.8,33c0,0,25.3,24.2,37.4,30.8l-12.1,7.7
	c0,0,16.5,4.4,20.9,11s-86.9,58.3-86.9,58.3s13.2-11,13.2-17.6s-3.3,9.9-29.7,9.9c0,0,13.2-13.2,13.2-18.7c0,0-31.9,23.1-49.5,18.7
	l17.6-18.7c0,0-19.8,23.1-57.2,13.2c0,0,23.1-12.1,23.1-17.6s-28.6,24.2-67.1,4.4l39.6-17.6c0,0-72.6,14.3-88-5.5l33-4.4
	c0,0-73.7,8.8-78.1-24.2c0,0,39.6,6.6,49.5-3.3c0,0-86.9,3.3-91.3-26.4c0,0,52.8,7.7,62.7,4.4c0,0-1.1-12.1-36.3-12.1
	c0,0-57.2-12.1-53.9-35.2c0,0,29.7,18.7,82.5,12.1C130,90.3-6.4,50.7,0.2,13.4z"/>
<path class="st0" d="M1365.4,0c0,0-138.4,83-260,99.2c0,0-60.5,0.5-99.9,42.3c0,0-21.9,26-32.8,33.6l12.3,6.4
	c0,0-15.3,5.8-18.9,12.7s88.6,48.9,88.6,48.9s-13.7-9.5-14.3-16s4.1,9.4,29.3,6.9c0,0-13.9-11.7-14.4-17.1c0,0,32.7,19.6,49.1,13.7
	l-18.6-16.6c0,0,21.1,20.7,55.9,7.6c0,0-23.2-9.7-23.8-15.1c-0.5-5.4,29.7,21,64.6-2l-39.5-13.5c0,0,70.8,7.2,83.6-13.6l-32-1.2
	c0,0,71.3,1.7,72.3-30.9c0,0-37.2,10.1-47.6,1.4c0,0,83.4-4.9,84.8-34.3c0,0-49.7,12.5-59.5,10.2c0,0-0.1-11.9,33.6-15.2
	c0,0,53.5-17.2,48.2-39.4c0,0-26.6,21.1-77.7,19.5C1248.7,87.4,1375.3,36,1365.4,0z"/>
<g>
	<g>
		<path class="st1" d="M360,115.8c31.2,0,43.8,13.3,43.8,42.1s-12.6,42.1-43.8,42.1h-8.4c-3.3,0-5.3,1.8-5.3,5.3v28
			c0,3.5-1.8,5.3-5.3,5.3h-19.6c-3.3,0-5.3-1.9-5.3-5.3v-112c0-3.5,1.8-5.3,5.3-5.4H360z M361.1,169.7c8.4,0,12.6-1.1,12.6-11.9
			s-4.2-11.9-12.6-11.9h-9.5c-3.3,0-5.3,1.8-5.3,5.3v13.3c0,3.3,1.9,5.3,5.3,5.3H361.1z"/>
		<path class="st1" d="M439.2,115.8c3.5,0,5.3,1.8,5.3,5.3v112.2c0,3.3-1.8,5.3-5.3,5.3H420c-3.3,0-5.3-1.9-5.3-5.3V121
			c0-3.5,1.9-5.3,5.3-5.3L439.2,115.8L439.2,115.8z"/>
		<path class="st1" d="M490.1,151.2c0-3.5-1.8-5.3-5.3-5.3h-24.5c-3.3,0-5.3-1.9-5.3-5.3V121c0-3.5,1.9-5.3,5.3-5.3H550
			c3.5,0,5.3,1.8,5.3,5.3v19.6c0,3.3-1.8,5.3-5.3,5.3h-24.5c-3.3,0-5.3,1.8-5.3,5.3v82c0,3.3-1.8,5.3-5.3,5.3h-19.6
			c-3.3,0-5.3-1.9-5.3-5.3L490.1,151.2L490.1,151.2z"/>
		<path class="st1" d="M587.2,115.8c3.5,0,5.3,1.8,5.3,5.3v19.6c0,12.8-5.6,23-19.1,24.4c-2.3,0.2-3.2-1.9-1.6-3.9
			c4.7-5.6,5.4-10,5.6-13.5c0-1.1-0.7-1.8-1.8-1.8h-8.1c-3.3,0-5.3-1.9-5.3-5.3V121c0-3.5,1.9-5.3,5.3-5.3
			C567.5,115.8,587.2,115.8,587.2,115.8z"/>
		<path class="st1" d="M691.4,232.5c0,3.9-1.8,6-5.3,6h-19.6c-3.3,0-5.3-1.8-5.3-5.3v-15.2c0-3.5-1.8-5.3-5.3-5.3h-15.1
			c-3.3,0-5.3,1.8-5.3,5.3v15.2c0,3.5-1.8,5.3-5.3,5.3h-19.6c-3.3,0-5.3-2.1-5.3-6v-74.3c0-22.1,3.5-45.6,42.9-45.6
			s42.9,23.5,42.9,45.6L691.4,232.5L691.4,232.5z M661.3,158.2c0-8.4-1.2-12.6-12.8-12.6c-11.6,0-12.8,4.2-12.8,12.6v19.1
			c0,3.3,1.9,5.3,5.3,5.3H656c3.5-0.2,5.3-1.9,5.3-5.4L661.3,158.2L661.3,158.2z"/>
		<path class="st1" d="M706.3,155.2c0-11.6,2.5-42.6,44-42.6c36.8,0,42.9,24.2,43.8,37.9c0.2,3.1-1.4,5.1-4.6,5.8l-19.8,4.4
			c-3.5,0.7-5.4-0.9-5.8-4.6c-0.7-8.4-3.7-13.3-13.7-13.3c-13,0-13.8,8.2-13.8,21.7v25.2c0,13.5,0.9,21.7,13.8,21.7
			s13.8-8.2,13.8-16.8H754c-3.3,0-5.3-1.9-5.3-5.3v-14c0-3.5,1.9-5.3,5.3-5.3h35c3.5,0,5.3,1.8,5.3,5.3V199c0,11.6-2.5,42.6-44,42.6
			c-41.5,0-44-31-44-42.6L706.3,155.2L706.3,155.2z"/>
		<path class="st1" d="M895.9,199c0,11.6-2.5,42.6-44,42.6s-44-31-44-42.6v-43.8c0-11.6,2.5-42.6,44-42.6c41.5,0,44,31,44,42.6V199z
			 M865.8,164.5c0-13.5-0.9-21.7-13.8-21.7s-13.8,8.2-13.8,21.7v25.2c0,13.5,0.9,21.7,13.8,21.7s13.8-8.2,13.8-21.7V164.5z"/>
		<path class="st1" d="M1004.1,229c2.5,4.6-0.3,9.5-5.8,9.5h-20c-1.8,0-3.3-0.9-4-2.4L956,200.8c-0.3-0.5-0.9-0.9-1.4-0.9h-7
			c-3.2,0-5.4,2.3-5.4,5.4V233c0,3.1-2.3,5.4-5.4,5.4h-19.6c-3.2,0-5.4-2.3-5.4-5.4V121.2c0-3.2,2.3-5.4,5.4-5.4h38.4
			c31.2,0,43.8,13.3,43.8,42.1c0,16.3-4,27.7-13.3,34.4c-0.7,0.5-0.9,1.4-0.5,2.3L1004.1,229z M947.6,145.9c-3.2,0-5.4,2.3-5.4,5.4
			v13c0,3.1,2.3,5.4,5.4,5.4h8.9c8.4,0,12.6-1.1,12.6-11.9s-4.2-11.9-12.6-11.9L947.6,145.9L947.6,145.9z"/>
		<path class="st1" d="M1100.6,232.5c0,3.9-1.8,6-5.3,6h-19.6c-3.3,0-5.3-1.8-5.3-5.3v-15.2c0-3.5-1.8-5.3-5.3-5.3h-15.1
			c-3.3,0-5.3,1.8-5.3,5.3v15.2c0,3.5-1.8,5.3-5.3,5.3H1020c-3.3,0-5.3-2.1-5.3-6v-74.3c0-22.1,3.5-45.6,42.9-45.6
			c39.4,0,42.9,23.5,42.9,45.6L1100.6,232.5L1100.6,232.5z M1070.5,158.2c0-8.4-1.2-12.6-12.8-12.6c-11.6,0-12.8,4.2-12.8,12.6v19.1
			c0,3.3,1.9,5.3,5.3,5.3h15.1c3.5-0.2,5.3-1.9,5.3-5.4L1070.5,158.2L1070.5,158.2z"/>
	</g>
</g>
</svg>
