<svg id="Calque_1" data-name="Calque 1" xmlns="http://www.w3.org/2000/svg" viewBox="0 0 772.23 155.36"><defs><style>.cls-1{fill:#333;}.cls-2{font-size:99.07px;fill:#f15a24;stroke:#333;stroke-miterlimit:10;stroke-width:1.5px;font-family:Cubano-Regular, Cubano;}</style></defs><path class="cls-1" d="M297,314.24S382.81,354,454.93,356.52c0,0,35.44-3.11,60.93,18.65,0,0,14.3,13.68,21.14,17.41l-6.84,4.35s9.33,2.49,11.82,6.22-49.12,33-49.12,33,7.46-6.22,7.46-10-1.87,5.6-16.79,5.6c0,0,7.46-7.46,7.46-10.57,0,0-18,13.06-28,10.57L473,421.18s-11.19,13.06-32.33,7.46c0,0,13.06-6.84,13.06-9.95s-16.16,13.68-37.92,2.49l22.38-9.95s-41,8.08-49.74-3.11l18.65-2.48s-41.65,5-44.14-13.68c0,0,22.38,3.73,28-1.87,0,0-49.12,1.87-51.61-14.92,0,0,29.85,4.35,35.44,2.49,0,0-.62-6.84-20.51-6.84,0,0-32.33-6.84-30.47-19.9,0,0,16.79,10.57,46.63,6.84C370.38,357.76,293.29,335.38,297,314.24Z" transform="translate(-296.89 -306.7)"/><path class="cls-1" d="M1068.8,306.7s-78.24,46.91-147,56.08c0,0-34.18.27-56.48,23.93,0,0-12.37,14.71-18.55,19l7,3.62s-8.68,3.3-10.71,7.18,50.11,27.64,50.11,27.64-7.72-5.39-8.08-9,2.32,5.29,16.59,3.9c0,0-7.85-6.6-8.15-9.64,0,0,18.49,11.08,27.76,7.72l-10.52-9.4s12,11.72,31.63,4.28c0,0-13.14-5.47-13.44-8.51s16.77,11.86,36.51-1.11l-22.36-7.64s40,4.07,47.27-7.68l-18.08-.69s40.31,1,40.91-17.5c0,0-21.05,5.74-26.93.79,0,0,47.14-2.76,47.92-19.41,0,0-28.12,7-33.65,5.74,0,0-.06-6.74,19-8.6,0,0,30.26-9.71,27.23-22.3,0,0-15,11.9-43.93,11C1002.81,356.1,1074.39,327,1068.8,306.7Z" transform="translate(-296.89 -306.7)"/><text class="cls-2" transform="translate(173.81 134.79)">PIt’Agora</text></svg>