<svg id="Calque_1" data-name="Calque 1" xmlns="http://www.w3.org/2000/svg" viewBox="0 0 1366 243.11"><defs><style>.cls-1{fill:#6f7d8d;}.cls-2{fill:#fff;stroke:#333;stroke-miterlimit:10;stroke-width:2px;}</style></defs><path class="cls-1" d="M.23,13.35S152,83.74,279.57,88.13c0,0,62.69-5.5,107.78,33,0,0,25.29,24.19,37.39,30.79l-12.1,7.7s16.5,4.4,20.9,11-86.88,58.29-86.88,58.29,13.2-11,13.2-17.6-3.3,9.9-29.69,9.9c0,0,13.2-13.2,13.2-18.7,0,0-31.89,23.1-49.49,18.7l17.6-18.7s-19.8,23.1-57.19,13.2c0,0,23.1-12.1,23.1-17.6s-28.59,24.19-67.09,4.4l39.59-17.6s-72.58,14.3-88-5.5l33-4.4s-73.68,8.8-78.08-24.19c0,0,39.59,6.6,49.49-3.3,0,0-86.88,3.3-91.28-26.39,0,0,52.79,7.7,62.69,4.4,0,0-1.1-12.1-36.29-12.1,0,0-57.19-12.1-53.89-35.19,0,0,29.69,18.7,82.48,12.1C130,90.33-6.37,50.74.23,13.35Z" transform="translate(0)"/><path class="cls-1" d="M1365.45,0s-138.4,83-260,99.21c0,0-60.47.48-99.91,42.32,0,0-21.88,26-32.81,33.6l12.3,6.4s-15.35,5.84-18.93,12.7,88.64,48.88,88.64,48.88-13.67-9.52-14.3-16,4.1,9.37,29.34,6.91c0,0-13.88-11.67-14.4-17.05,0,0,32.7,19.61,49.11,13.66L1085.91,214s21.13,20.73,55.94,7.57c0,0-23.24-9.67-23.76-15.05s29.65,21,64.57-2l-39.54-13.51s70.77,7.2,83.6-13.59l-32-1.22s71.3,1.72,72.35-30.95c0,0-37.23,10.15-47.64,1.39,0,0,83.39-4.89,84.76-34.33,0,0-49.74,12.46-59.52,10.15,0,0-.1-11.93,33.55-15.22,0,0,53.53-17.17,48.17-39.44,0,0-26.61,21-77.71,19.53C1248.71,87.39,1375.33,36,1365.45,0Z" transform="translate(0)"/><path class="cls-2" d="M360,115.76c31.2,0,43.81,13.32,43.81,42.06S391.23,199.88,360,199.88h-8.41c-3.33,0-5.26,1.75-5.26,5.26v28c0,3.5-1.75,5.26-5.26,5.26H321.48c-3.33,0-5.26-1.93-5.26-5.26v-112c0-3.5,1.75-5.26,5.26-5.43Zm1,54c8.41,0,12.62-1,12.62-11.92s-4.21-11.92-12.62-11.92h-9.46c-3.33,0-5.26,1.75-5.26,5.26v13.32c0,3.33,1.93,5.26,5.26,5.26Z" transform="translate(0)"/><path class="cls-2" d="M439.25,115.76q5.26,0,5.26,5.26V233.18c0,3.33-1.75,5.26-5.26,5.26H420c-3.33,0-5.26-1.93-5.26-5.26V121c0-3.5,1.93-5.26,5.26-5.26h19.28Z" transform="translate(0)"/><path class="cls-2" d="M490.07,151.16c0-3.5-1.75-5.26-5.26-5.26H460.27c-3.33,0-5.26-1.93-5.26-5.26V121c0-3.5,1.93-5.26,5.26-5.26H550q5.26,0,5.26,5.26v19.63c0,3.33-1.75,5.26-5.26,5.26H525.46c-3.33,0-5.26,1.75-5.26,5.26v82c0,3.33-1.75,5.26-5.26,5.26H495.31c-3.33,0-5.26-1.93-5.26-5.26v-82Z" transform="translate(0)"/><path class="cls-2" d="M587.15,115.76q5.26,0,5.26,5.26v19.63c0,12.79-5.61,23-19.1,24.36-2.28.17-3.15-1.93-1.58-3.86,4.73-5.61,5.43-10,5.61-13.49a1.65,1.65,0,0,0-1.75-1.75h-8.06c-3.33,0-5.26-1.93-5.26-5.26V121c0-3.5,1.93-5.26,5.26-5.26Z" transform="translate(0)"/><path class="cls-2" d="M691.43,232.48c0,3.86-1.75,6-5.26,6H666.54c-3.33,0-5.26-1.75-5.26-5.26V217.93c0-3.5-1.75-5.26-5.26-5.26H641c-3.33,0-5.26,1.75-5.26,5.26v15.25c0,3.5-1.75,5.26-5.26,5.26H610.8c-3.33,0-5.26-2.1-5.26-6V158.17c0-22.08,3.51-45.57,42.94-45.57s42.94,23.48,42.94,45.57v74.31Zm-30.15-74.31c0-8.41-1.23-12.62-12.79-12.62s-12.79,4.2-12.79,12.62v19.1c0,3.33,1.93,5.26,5.26,5.26H656c3.51-.17,5.26-1.93,5.26-5.43V158.17Z" transform="translate(0)"/><path class="cls-2" d="M706.32,155.19c0-11.57,2.45-42.59,44-42.59,36.8,0,42.94,24.19,43.81,37.86.17,3.15-1.4,5.08-4.56,5.78l-19.81,4.38c-3.51.7-5.43-.88-5.78-4.56-.7-8.41-3.68-13.32-13.67-13.32-13,0-13.85,8.24-13.85,21.73v25.24c0,13.49.88,21.73,13.85,21.73s13.84-8.24,13.84-16.83H754c-3.33,0-5.26-1.93-5.26-5.26v-14c0-3.5,1.93-5.26,5.26-5.26h35c3.5,0,5.26,1.75,5.26,5.26V199c0,11.57-2.45,42.59-44,42.59s-44-31-44-42.59V155.19Z" transform="translate(0)"/><path class="cls-2" d="M895.94,199c0,11.57-2.45,42.59-44,42.59s-44-31-44-42.59V155.19c0-11.57,2.45-42.59,44-42.59s44,31,44,42.59Zm-30.15-34.52c0-13.49-.88-21.73-13.85-21.73s-13.85,8.24-13.85,21.73v25.24c0,13.49.88,21.73,13.85,21.73s13.85-8.24,13.85-21.73Z" transform="translate(0)"/><path class="cls-2" d="M1004.06,229c2.45,4.56-.35,9.46-5.78,9.46h-20a4.28,4.28,0,0,1-4-2.45L956,200.75a1.79,1.79,0,0,0-1.4-.88h-7a5.25,5.25,0,0,0-5.43,5.43V233a5.25,5.25,0,0,1-5.43,5.43H917.14a5.25,5.25,0,0,1-5.43-5.43V121.19a5.24,5.24,0,0,1,5.43-5.43h38.38c31.19,0,43.81,13.32,43.81,42.06,0,16.3-4,27.69-13.32,34.35a1.86,1.86,0,0,0-.53,2.28ZM947.63,145.9a5.25,5.25,0,0,0-5.43,5.43v13a5.25,5.25,0,0,0,5.43,5.43h8.94c8.41,0,12.62-1,12.62-11.92s-4.21-11.92-12.62-11.92h-8.94Z" transform="translate(0)"/><path class="cls-2" d="M1100.62,232.48c0,3.86-1.75,6-5.26,6h-19.63c-3.33,0-5.26-1.75-5.26-5.26V217.93c0-3.5-1.75-5.26-5.26-5.26h-15.07c-3.33,0-5.26,1.75-5.26,5.26v15.25c0,3.5-1.75,5.26-5.26,5.26H1020c-3.33,0-5.26-2.1-5.26-6V158.17c0-22.08,3.51-45.57,42.94-45.57s42.94,23.48,42.94,45.57v74.31Zm-30.15-74.31c0-8.41-1.23-12.62-12.79-12.62s-12.79,4.2-12.79,12.62v19.1c0,3.33,1.93,5.26,5.26,5.26h15.07c3.51-.17,5.26-1.93,5.26-5.43V158.17Z" transform="translate(0)"/></svg>