<?xml version="1.0" encoding="utf-8"?>
<!-- Generator: Adobe Illustrator 26.0.3, SVG Export Plug-In . SVG Version: 6.00 Build 0)  -->
<svg version="1.1" id="Calque_1" xmlns="http://www.w3.org/2000/svg" xmlns:xlink="http://www.w3.org/1999/xlink" x="0px" y="0px"
	 viewBox="0 0 1366 248.14" style="enable-background:new 0 0 1366 248.14;" xml:space="preserve">
<style type="text/css">
	.st0{fill:#333333;stroke:#FFFFFF;stroke-miterlimit:10;}
	.st1{fill:#F15A24;stroke:#FFFFFF;stroke-width:1.5;stroke-miterlimit:10;}
</style>
<path class="st0" d="M0.23,13.35c0,0,151.77,70.39,279.34,74.78c0,0,62.69-5.5,107.78,32.99c0,0,25.29,24.19,37.39,30.79l-12.1,7.7
	c0,0,16.5,4.4,20.9,11s-86.88,58.29-86.88,58.29s13.2-11,13.2-17.6s-3.3,9.9-29.69,9.9c0,0,13.2-13.2,13.2-18.7
	c0,0-31.89,23.1-49.49,18.7l17.6-18.7c0,0-19.8,23.1-57.19,13.2c0,0,23.1-12.1,23.1-17.6c0-5.5-28.59,24.19-67.09,4.4l39.59-17.6
	c0,0-72.58,14.3-87.98-5.5l32.99-4.4c0,0-73.68,8.8-78.08-24.19c0,0,39.59,6.6,49.49-3.3c0,0-86.88,3.3-91.28-26.39
	c0,0,52.79,7.7,62.69,4.4c0,0-1.1-12.1-36.29-12.1c0,0-57.19-12.1-53.89-35.19c0,0,29.69,18.7,82.48,12.1
	C130,90.33-6.37,50.74,0.23,13.35z"/>
<path class="st0" d="M1365.45,0c0,0-138.4,82.99-259.97,99.21c0,0-60.47,0.48-99.91,42.32c0,0-21.88,26.02-32.81,33.6l12.3,6.4
	c0,0-15.35,5.84-18.93,12.7c-3.58,6.86,88.64,48.88,88.64,48.88s-13.67-9.52-14.3-15.97c-0.63-6.45,4.1,9.37,29.34,6.91
	c0,0-13.88-11.67-14.4-17.05c0,0,32.7,19.61,49.11,13.66l-18.61-16.64c0,0,21.13,20.73,55.94,7.57c0,0-23.24-9.67-23.76-15.05
	c-0.53-5.38,29.65,20.99,64.57-1.96l-39.54-13.51c0,0,70.77,7.2,83.6-13.59l-31.97-1.22c0,0,71.3,1.72,72.35-30.95
	c0,0-37.23,10.15-47.64,1.39c0,0,83.39-4.89,84.76-34.33c0,0-49.74,12.46-59.52,10.15c0,0-0.1-11.93,33.55-15.22
	c0,0,53.53-17.17,48.17-39.44c0,0-26.61,21.05-77.71,19.53C1248.71,87.39,1375.33,35.95,1365.45,0z"/>
<g>
	<g>
		<path class="st1" d="M360.04,115.76c31.2,0,43.81,13.32,43.81,42.06c0,28.74-12.62,42.06-43.81,42.06h-8.41
			c-3.33,0-5.26,1.75-5.26,5.26v28.04c0,3.5-1.75,5.26-5.26,5.26h-19.63c-3.33,0-5.26-1.93-5.26-5.26V121.19
			c0-3.5,1.75-5.26,5.26-5.43H360.04z M361.09,169.73c8.41,0,12.62-1.05,12.62-11.92s-4.21-11.92-12.62-11.92h-9.46
			c-3.33,0-5.26,1.75-5.26,5.26v13.32c0,3.33,1.93,5.26,5.26,5.26H361.09z"/>
		<path class="st1" d="M439.25,115.76c3.51,0,5.26,1.75,5.26,5.26v112.16c0,3.33-1.75,5.26-5.26,5.26h-19.28
			c-3.33,0-5.26-1.93-5.26-5.26V121.01c0-3.5,1.93-5.26,5.26-5.26H439.25z"/>
		<path class="st1" d="M490.07,151.16c0-3.5-1.75-5.26-5.26-5.26h-24.54c-3.33,0-5.26-1.93-5.26-5.26v-19.63
			c0-3.5,1.93-5.26,5.26-5.26H550c3.51,0,5.26,1.75,5.26,5.26v19.63c0,3.33-1.75,5.26-5.26,5.26h-24.54c-3.33,0-5.26,1.75-5.26,5.26
			v82.02c0,3.33-1.75,5.26-5.26,5.26h-19.63c-3.33,0-5.26-1.93-5.26-5.26V151.16z"/>
		<path class="st1" d="M587.15,115.76c3.51,0,5.26,1.75,5.26,5.26v19.63c0,12.79-5.61,22.96-19.1,24.36
			c-2.28,0.17-3.15-1.93-1.58-3.86c4.73-5.61,5.43-9.99,5.61-13.49c0-1.05-0.7-1.75-1.75-1.75h-8.06c-3.33,0-5.26-1.93-5.26-5.26
			v-19.63c0-3.5,1.93-5.26,5.26-5.26H587.15z"/>
		<path class="st1" d="M691.43,232.48c0,3.86-1.75,5.96-5.26,5.96h-19.63c-3.33,0-5.26-1.75-5.26-5.26v-15.25
			c0-3.5-1.75-5.26-5.26-5.26h-15.07c-3.33,0-5.26,1.75-5.26,5.26v15.25c0,3.5-1.75,5.26-5.26,5.26h-19.63
			c-3.33,0-5.26-2.1-5.26-5.96v-74.31c0-22.08,3.51-45.57,42.94-45.57c39.43,0,42.94,23.48,42.94,45.57V232.48z M661.28,158.17
			c0-8.41-1.23-12.62-12.79-12.62c-11.57,0-12.79,4.2-12.79,12.62v19.1c0,3.33,1.93,5.26,5.26,5.26h15.07
			c3.51-0.17,5.26-1.93,5.26-5.43V158.17z"/>
		<path class="st1" d="M706.32,155.19c0-11.57,2.45-42.59,43.99-42.59c36.8,0,42.94,24.19,43.81,37.86c0.17,3.15-1.4,5.08-4.56,5.78
			l-19.81,4.38c-3.51,0.7-5.43-0.88-5.78-4.56c-0.7-8.41-3.68-13.32-13.67-13.32c-12.97,0-13.85,8.24-13.85,21.73v25.24
			c0,13.49,0.88,21.73,13.85,21.73s13.84-8.24,13.84-16.83h-10.16c-3.33,0-5.26-1.93-5.26-5.26v-14.02c0-3.5,1.93-5.26,5.26-5.26
			h35.05c3.5,0,5.26,1.75,5.26,5.26V199c0,11.57-2.45,42.59-43.99,42.59c-41.53,0-43.99-31.02-43.99-42.59V155.19z"/>
		<path class="st1" d="M895.94,199c0,11.57-2.45,42.59-43.99,42.59c-41.54,0-43.99-31.02-43.99-42.59v-43.81
			c0-11.57,2.45-42.59,43.99-42.59c41.53,0,43.99,31.02,43.99,42.59V199z M865.79,164.48c0-13.49-0.88-21.73-13.85-21.73
			s-13.85,8.24-13.85,21.73v25.24c0,13.49,0.88,21.73,13.85,21.73s13.85-8.24,13.85-21.73V164.48z"/>
		<path class="st1" d="M1004.06,228.97c2.45,4.56-0.35,9.46-5.78,9.46H978.3c-1.75,0-3.33-0.88-4.03-2.45l-18.23-35.23
			c-0.35-0.53-0.88-0.88-1.4-0.88h-7.01c-3.15,0-5.43,2.28-5.43,5.43V233c0,3.15-2.28,5.43-5.43,5.43h-19.63
			c-3.15,0-5.43-2.28-5.43-5.43V121.19c0-3.16,2.28-5.43,5.43-5.43h38.38c31.19,0,43.81,13.32,43.81,42.06
			c0,16.3-4.03,27.69-13.32,34.35c-0.7,0.53-0.88,1.4-0.53,2.28L1004.06,228.97z M947.63,145.9c-3.15,0-5.43,2.28-5.43,5.43v12.97
			c0,3.15,2.28,5.43,5.43,5.43h8.94c8.41,0,12.62-1.05,12.62-11.92s-4.21-11.92-12.62-11.92H947.63z"/>
		<path class="st1" d="M1100.62,232.48c0,3.86-1.75,5.96-5.26,5.96h-19.63c-3.33,0-5.26-1.75-5.26-5.26v-15.25
			c0-3.5-1.75-5.26-5.26-5.26h-15.07c-3.33,0-5.26,1.75-5.26,5.26v15.25c0,3.5-1.75,5.26-5.26,5.26H1020c-3.33,0-5.26-2.1-5.26-5.96
			v-74.31c0-22.08,3.51-45.57,42.94-45.57c39.43,0,42.94,23.48,42.94,45.57V232.48z M1070.47,158.17c0-8.41-1.23-12.62-12.79-12.62
			c-11.57,0-12.79,4.2-12.79,12.62v19.1c0,3.33,1.93,5.26,5.26,5.26h15.07c3.51-0.17,5.26-1.93,5.26-5.43V158.17z"/>
	</g>
</g>
</svg>
